<?xml version="1.0" encoding="UTF-8"?>
<!DOCTYPE svg PUBLIC "-//W3C//DTD SVG 1.1//EN" "http://www.w3.org/Graphics/SVG/1.1/DTD/svg11.dtd">
<!-- Creator: CorelDRAW -->
<svg xmlns="http://www.w3.org/2000/svg" xml:space="preserve" width="20px" height="20px" version="1.1" style="shape-rendering:geometricPrecision; text-rendering:geometricPrecision; image-rendering:optimizeQuality; fill-rule:evenodd; clip-rule:evenodd"
viewBox="0 0 4.51 4.45"
 xmlns:xlink="http://www.w3.org/1999/xlink"
 xmlns:xodm="http://www.corel.com/coreldraw/odm/2003">
 <defs>
  <style type="text/css">
   <![CDATA[
    .fil0 {fill:#F05656;fill-rule:nonzero}
   ]]>
  </style>
 </defs>
 <g id="Слой_x0020_1">
  <metadata id="CorelCorpID_0Corel-Layer"/>
  <path class="fil0" d="M0.2 0c-0.11,0 -0.2,0.09 -0.2,0.2l0 4.05c0,0.11 0.09,0.2 0.2,0.2l4.1 0c0.12,0 0.21,-0.09 0.21,-0.2l0 -4.05c0,-0.11 -0.09,-0.2 -0.21,-0.2l-4.1 0zm1.83 0.34c0,0 0,0 0,0 0.07,0 0.13,0.04 0.15,0.1 0.03,-0.02 0.06,-0.03 0.1,-0.03 0.07,0 0.13,0.05 0.14,0.13 0.02,-0.01 0.04,-0.02 0.05,-0.02 0.01,0 0.01,0 0.01,0 0.06,0.01 0.11,0.05 0.12,0.11 0.02,-0.04 0.06,-0.08 0.11,-0.09 0.03,-0.02 0.06,-0.02 0.1,-0.02 0.1,0 0.19,0.06 0.23,0.15 0.01,-0.02 0.03,-0.03 0.05,-0.05 0.03,-0.01 0.06,-0.02 0.1,-0.02 0.07,0 0.15,0.04 0.18,0.11 0.02,0.03 0.02,0.06 0.02,0.09 0.03,-0.01 0.05,-0.01 0.07,-0.01 0.11,0 0.19,0.08 0.19,0.19 0,0.01 0,0.03 -0.01,0.05 0.01,0 0.02,0 0.03,0 0.09,0 0.17,0.07 0.17,0.17 0,0.03 -0.01,0.07 -0.03,0.1 0.05,0.02 0.09,0.08 0.09,0.14 0,0.04 -0.02,0.09 -0.06,0.11 0.01,0.02 0.03,0.03 0.03,0.05 0.01,0.01 0.02,0.03 0.02,0.05 0,0.02 -0.01,0.04 -0.02,0.06 0.04,0.01 0.07,0.03 0.09,0.05 0.06,0.04 0.1,0.12 0.1,0.19 0,0.06 -0.02,0.11 -0.05,0.15 0.03,0.01 0.05,0.02 0.07,0.03 0.06,0.04 0.09,0.1 0.09,0.17 0,0.04 -0.01,0.08 -0.03,0.11 -0.02,0.03 -0.04,0.05 -0.06,0.07 0.04,0.03 0.07,0.09 0.07,0.15 0,0.03 -0.01,0.07 -0.03,0.1 -0.03,0.04 -0.07,0.07 -0.11,0.08 0.02,0.03 0.04,0.07 0.04,0.11 0,0.09 -0.08,0.17 -0.17,0.17 -0.01,0 -0.02,0 -0.03,0 0,-0.01 0,-0.01 0,-0.01 0,0.01 0.01,0.02 0.01,0.03 0,0.08 -0.07,0.14 -0.15,0.14 -0.02,0 -0.04,0 -0.06,-0.01 0,0.02 -0.01,0.04 -0.02,0.06 -0.02,0.02 -0.04,0.04 -0.08,0.05 0.01,0.02 0.01,0.04 0.01,0.05 0,0.01 0,0.02 0,0.04 -0.02,0.12 -0.13,0.22 -0.25,0.22 -0.01,0 -0.02,0 -0.02,0 0,0.02 0.01,0.04 0.01,0.06 0,0 0,0 0,0.01 -0.01,0.11 -0.1,0.2 -0.21,0.2 0,0 0,0 -0.01,0 -0.03,0 -0.06,-0.01 -0.08,-0.03 -0.01,0.1 -0.09,0.17 -0.19,0.17 -0.05,0 -0.1,-0.02 -0.13,-0.06 -0.03,0.07 -0.09,0.12 -0.16,0.12 -0.07,0 -0.13,-0.04 -0.16,-0.1 -0.02,0.02 -0.06,0.03 -0.09,0.03 -0.08,0 -0.14,-0.05 -0.15,-0.12 -0.01,0 -0.03,0.01 -0.05,0.01 0,0 0,0 0,0 -0.06,0 -0.11,-0.05 -0.12,-0.11l0 0c-0.03,0.04 -0.07,0.08 -0.12,0.1 -0.03,0.01 -0.06,0.01 -0.09,0.01 -0.1,0 -0.19,-0.06 -0.23,-0.15 -0.02,0.02 -0.04,0.04 -0.06,0.05 -0.03,0.01 -0.06,0.02 -0.09,0.02 -0.08,0 -0.15,-0.04 -0.18,-0.11 -0.02,-0.03 -0.03,-0.06 -0.03,-0.09 -0.02,0.01 -0.04,0.01 -0.07,0.01 -0.1,0 -0.18,-0.08 -0.18,-0.18 0,-0.02 0,-0.04 0,-0.06 -0.01,0 -0.01,0 -0.02,0 -0.1,0 -0.17,-0.07 -0.17,-0.17 0,-0.03 0.01,-0.07 0.03,-0.1 -0.06,-0.02 -0.09,-0.08 -0.09,-0.14 0,-0.04 0.02,-0.09 0.06,-0.11 -0.02,-0.01 -0.03,-0.03 -0.04,-0.05 -0.01,-0.01 -0.01,-0.03 -0.01,-0.05 0,-0.02 0,-0.04 0.01,-0.06l0.01 0c-0.04,-0.01 -0.07,-0.02 -0.1,-0.04 -0.06,-0.05 -0.09,-0.13 -0.09,-0.2 0,-0.06 0.01,-0.11 0.04,-0.15 -0.02,-0.01 -0.04,-0.02 -0.06,-0.03 -0.06,-0.04 -0.1,-0.1 -0.1,-0.17 0,-0.04 0.01,-0.08 0.04,-0.11 0.01,-0.03 0.03,-0.05 0.06,-0.07 -0.05,-0.03 -0.07,-0.09 -0.07,-0.15 0,-0.08 0.06,-0.16 0.14,-0.18 -0.03,-0.03 -0.04,-0.07 -0.04,-0.11 0,-0.09 0.08,-0.17 0.17,-0.17 0.01,0 0.01,0 0.02,0.01 0,-0.01 0,-0.02 0,-0.03 0,-0.08 0.07,-0.14 0.15,-0.14 0.02,0 0.04,0 0.05,0.01 0.01,-0.02 0.01,-0.04 0.02,-0.05 0.02,-0.03 0.05,-0.05 0.08,-0.06 0,-0.02 0,-0.04 0,-0.05 0,-0.01 0,-0.02 0,-0.03 0.01,-0.13 0.12,-0.22 0.25,-0.22 0.01,0 0.01,0 0.02,0 -0.01,-0.03 -0.01,-0.05 -0.01,-0.07 0,0 0,0 0,0 0,-0.12 0.09,-0.21 0.21,-0.21 0,0 0,0 0,0 0.03,0 0.06,0.01 0.09,0.03 0.01,-0.1 0.09,-0.17 0.19,-0.17 0.05,0 0.09,0.02 0.13,0.06 0.02,-0.07 0.09,-0.12 0.16,-0.12l0 0zm-1.34 1.05c0,0 0,0 0,0l0 0c0,0 0,0 0,0l0 0zm2.6 2.27c0,-0.01 0,-0.01 0,-0.01l-0.01 0c0,0 0,0 0.01,0.01l0 0zm-0.69 -3.03c0,0 -0.01,0 -0.01,0l0.01 0 0 0zm-0.45 0l0 0c-0.03,0.03 -0.08,0.05 -0.12,0.05 0,0 0,0 0,0 -0.05,0 -0.08,-0.02 -0.11,-0.04 -0.03,0.08 -0.1,0.13 -0.18,0.13 -0.01,0 -0.01,0 -0.01,0 -0.02,0 -0.05,0 -0.07,-0.01 0,0.11 -0.09,0.19 -0.2,0.2 0.02,0.03 0.03,0.07 0.03,0.11 0,0 0,0.01 0,0.02 -0.01,0.09 -0.06,0.16 -0.14,0.2 0.04,0.04 0.06,0.09 0.06,0.14 0,0 0,0.01 0,0.01 0,0.04 -0.02,0.09 -0.05,0.12 0.06,0.03 0.1,0.1 0.1,0.17 0,0.02 0,0.05 -0.01,0.07 0.09,0 0.15,0.08 0.15,0.17 0,0 0,0 0,0 0,0 0,0 0,0 0,0.01 0,0.02 0,0.03 0.01,0 0.02,0 0.03,0 0,0 0,0 0,0 0.07,0 0.12,0.04 0.13,0.1 0.02,-0.01 0.05,-0.02 0.07,-0.02 0,0 0,0 0,0 0.06,0 0.11,0.04 0.12,0.1 0.01,-0.01 0.03,-0.01 0.04,-0.01 0.01,0 0.02,0 0.03,0 0.01,-0.04 0.03,-0.08 0.06,-0.11 -0.01,-0.01 -0.02,-0.02 -0.02,-0.03 -0.01,-0.01 -0.01,-0.02 -0.01,-0.04 0,-0.01 0,-0.02 0.01,-0.03 -0.06,-0.02 -0.1,-0.07 -0.1,-0.13 0,-0.03 0.02,-0.06 0.04,-0.08 -0.03,-0.02 -0.05,-0.04 -0.07,-0.07 -0.01,-0.02 -0.01,-0.04 -0.01,-0.06 0,-0.06 0.03,-0.11 0.08,-0.13 0,0 0,0 -0.01,0.01 -0.01,-0.02 -0.03,-0.03 -0.04,-0.05 -0.01,-0.03 -0.01,-0.05 -0.01,-0.08 0,-0.08 0.05,-0.15 0.13,-0.17l0 0c-0.01,-0.03 -0.02,-0.06 -0.02,-0.09 0,-0.07 0.04,-0.14 0.1,-0.17 0.03,-0.01 0.06,-0.02 0.09,-0.02 0.01,0 0.01,0 0.02,0 0,0 0,-0.01 0,-0.01 0,-0.08 0.04,-0.15 0.11,-0.19 0,0 0.01,0 0.01,0 -0.01,-0.01 -0.02,-0.03 -0.02,-0.04 -0.02,0.01 -0.05,0.02 -0.08,0.02 0,0 0,0 0,0 -0.06,0 -0.1,-0.03 -0.13,-0.07l0 0zm0.86 0.28c-0.03,0.04 -0.07,0.07 -0.11,0.09 -0.03,0.01 -0.06,0.02 -0.09,0.02 -0.05,0 -0.1,-0.02 -0.15,-0.05l0 0c-0.01,0.05 -0.05,0.1 -0.1,0.12 -0.03,0.02 -0.06,0.03 -0.1,0.03 -0.01,0 -0.02,0 -0.03,0 0,0.07 -0.04,0.13 -0.1,0.16 -0.02,0.01 -0.04,0.02 -0.06,0.02 0,0.02 0.01,0.05 0.01,0.07 0,0.06 -0.04,0.12 -0.09,0.15 -0.01,0.01 -0.02,0.01 -0.03,0.01 0.01,0.01 0.01,0.02 0.02,0.03 0.01,0.02 0.01,0.04 0.01,0.06 0,0.04 -0.01,0.08 -0.04,0.1 0.02,0.02 0.04,0.03 0.05,0.06 0.01,0.01 0.01,0.03 0.01,0.05 0,0.04 -0.01,0.07 -0.04,0.1 0.01,0 0.02,0.01 0.03,0.03 0,0 0,0.01 0.01,0.02 0.02,-0.01 0.04,-0.01 0.07,-0.01 0.01,0 0.03,0 0.05,0 0,-0.01 0.01,-0.02 0.01,-0.02 0.02,-0.03 0.04,-0.04 0.07,-0.04 -0.01,-0.01 -0.01,-0.02 -0.01,-0.04 0,-0.07 0.06,-0.12 0.13,-0.12 0.01,0 0.02,0 0.03,0 0,0 0,-0.01 0,-0.01 0,-0.03 0,-0.06 0.02,-0.08 0.02,-0.04 0.07,-0.06 0.11,-0.06 0.03,0 0.06,0.01 0.08,0.02 0,-0.02 0.01,-0.04 0.02,-0.06 0.03,-0.05 0.09,-0.08 0.15,-0.08 0.03,0 0.06,0.01 0.09,0.03 0.01,0.01 0.02,0.02 0.03,0.03 0.04,-0.06 0.1,-0.09 0.17,-0.09 0.03,0 0.07,0.01 0.1,0.03 0.03,0.02 0.05,0.05 0.07,0.08 0.07,-0.05 0.16,-0.05 0.23,0 0.01,0 0.02,0.02 0.04,0.03 0,-0.01 0.01,-0.02 0.01,-0.02 -0.03,-0.02 -0.05,-0.04 -0.06,-0.07 -0.01,-0.02 -0.02,-0.04 -0.02,-0.06 0,-0.03 0.01,-0.06 0.02,-0.08 -0.04,-0.01 -0.08,-0.04 -0.1,-0.09 -0.01,-0.02 -0.02,-0.05 -0.02,-0.07 0,-0.02 0,-0.03 0.01,-0.04 -0.02,0 -0.03,0 -0.05,0 -0.07,0 -0.13,-0.04 -0.16,-0.1 -0.01,-0.02 -0.02,-0.04 -0.02,-0.07 -0.03,0.02 -0.06,0.02 -0.09,0.02 -0.08,0 -0.14,-0.03 -0.18,-0.1l0 0zm-2.02 0.45c0,0 0,0 0,0 0,0.03 -0.01,0.06 -0.03,0.08 -0.02,0.05 -0.07,0.07 -0.12,0.07 0,0 0,0 -0.01,0 0.02,0.05 0.01,0.09 -0.02,0.13 -0.02,0.04 -0.05,0.06 -0.09,0.08 0.06,0.06 0.07,0.15 0.02,0.23 -0.01,0.02 -0.03,0.03 -0.05,0.05 0.06,0.03 0.1,0.1 0.1,0.17 0,0.03 -0.01,0.07 -0.03,0.1 0.05,0 0.09,0.02 0.13,0.05 0.06,0.05 0.1,0.12 0.1,0.2 0,0 0,0.01 0,0.02 0.05,-0.02 0.1,-0.01 0.15,0.02 0.04,0.03 0.07,0.06 0.09,0.1 0.02,-0.01 0.06,-0.02 0.09,-0.02 0.04,0 0.07,0.01 0.1,0.03 0.02,0.01 0.04,0.03 0.05,0.04 0.03,-0.04 0.08,-0.07 0.14,-0.07 0.03,0 0.06,0.01 0.09,0.03 0.01,0.01 0.02,0.01 0.02,0.02 0.01,-0.01 0.01,-0.02 0.02,-0.03 0.02,-0.04 0.07,-0.06 0.11,-0.06 0.02,0 0.03,0 0.05,0 0,0 0,0 0,0 0,-0.03 0,-0.05 0.01,-0.07 0.03,-0.03 0.07,-0.06 0.11,-0.06 0.01,0 0.03,0.01 0.04,0.01 0,-0.03 0.02,-0.06 0.04,-0.07 -0.03,-0.03 -0.05,-0.06 -0.06,-0.1l0 0c-0.02,0.01 -0.03,0.01 -0.05,0.01 0,0 0,0 0,0 -0.03,0 -0.05,-0.01 -0.06,-0.03 -0.03,0.03 -0.06,0.04 -0.1,0.04 -0.05,0 -0.1,-0.03 -0.12,-0.09 -0.02,0.02 -0.05,0.03 -0.08,0.03 0,0 0,0 -0.01,0 -0.07,0 -0.13,-0.06 -0.13,-0.14 0,0 0,0 0,0 -0.02,0.01 -0.04,0.01 -0.06,0.01 0,0 0,0 0,0 -0.1,0 -0.17,-0.08 -0.17,-0.17 0,-0.02 0,-0.04 0.01,-0.05l0 0c-0.11,0 -0.19,-0.09 -0.19,-0.19 0,0 0,-0.01 0,-0.01 0,-0.03 0.01,-0.07 0.03,-0.1 -0.07,-0.03 -0.12,-0.11 -0.12,-0.19 0,0 0,0 0,0 0,-0.03 0.01,-0.05 0.01,-0.07 0,0 -0.01,0 -0.01,0l0 0zm2.08 0.4c-0.03,0.04 -0.08,0.07 -0.13,0.07 -0.04,0 -0.07,-0.01 -0.1,-0.03 0,-0.01 -0.01,-0.01 -0.02,-0.02 0,0.01 0,0.02 -0.01,0.03 -0.02,0.04 -0.07,0.06 -0.12,0.06 -0.01,0 -0.03,0 -0.04,0 0,0 0,0 0,0 0,0.03 -0.01,0.05 -0.02,0.07 -0.02,0.04 -0.06,0.06 -0.1,0.06 -0.02,0 -0.03,0 -0.04,-0.01 0,0.02 -0.01,0.03 -0.01,0.04 -0.01,0.01 -0.01,0.01 -0.02,0.02 0.03,0.03 0.05,0.06 0.06,0.1 0.01,0 0.02,0 0.03,0 0.01,0 0.01,0 0.01,0 0.02,0 0.05,0.01 0.06,0.03 0.02,-0.02 0.06,-0.04 0.09,-0.04 0.06,0 0.11,0.04 0.12,0.09 0.03,-0.02 0.06,-0.03 0.09,-0.03 0,0 0,0 0,0 0.08,0 0.14,0.06 0.14,0.14 0,0 0,0 0,0 0,0 0,0 0,0l0 0c0.02,0 0.03,-0.01 0.05,-0.01 0.01,0 0.01,0 0.01,0 0.09,0 0.17,0.08 0.17,0.17 0,0.01 0,0.01 0,0.01 0,0.01 -0.01,0.03 -0.01,0.04 0.11,0.01 0.19,0.09 0.19,0.2 0,0.03 -0.02,0.07 -0.04,0.1 0.08,0.03 0.13,0.11 0.13,0.19 0,0 0,0 0,0 -0.01,0.03 -0.01,0.05 -0.02,0.07l0 0 0.02 0c0,0 0,0 0,0 0,-0.03 0.01,-0.06 0.02,-0.08 0.03,-0.04 0.08,-0.07 0.13,-0.07 0,0 0,0 0,0 0,-0.01 0,-0.03 0,-0.04 0,-0.04 0.01,-0.07 0.02,-0.09 0.03,-0.04 0.06,-0.06 0.1,-0.07 -0.04,-0.04 -0.05,-0.09 -0.05,-0.13 0,-0.04 0.01,-0.07 0.02,-0.1 0.02,-0.02 0.03,-0.04 0.05,-0.05 -0.05,-0.04 -0.09,-0.11 -0.09,-0.18 0,-0.03 0.01,-0.07 0.03,-0.1 -0.05,0 -0.1,-0.02 -0.13,-0.05l0 0c-0.07,-0.05 -0.1,-0.12 -0.1,-0.2 0,0 0,-0.01 0,-0.02 -0.02,0.01 -0.03,0.01 -0.05,0.01 -0.04,0 -0.07,-0.01 -0.11,-0.03 -0.03,-0.03 -0.06,-0.06 -0.08,-0.1 -0.03,0.01 -0.06,0.02 -0.09,0.02 -0.04,0 -0.08,-0.01 -0.11,-0.03 -0.02,-0.01 -0.03,-0.03 -0.05,-0.04l0 0zm-0.01 0.58l0 0.01c0,0 0,0 0,-0.01l0 0zm-0.54 -0.05c-0.01,0.05 -0.04,0.09 -0.07,0.12 0.02,0 0.03,0.02 0.04,0.03 0,0.01 0.01,0.02 0.01,0.04 0,0.01 -0.01,0.02 -0.01,0.04 0.05,0.01 0.09,0.06 0.09,0.12 0,0.03 -0.01,0.06 -0.03,0.08 0.03,0.02 0.05,0.04 0.07,0.07 0.01,0.02 0.01,0.04 0.01,0.06 0,0.05 -0.03,0.1 -0.07,0.12 0.01,0.02 0.02,0.03 0.03,0.05 0.01,0.03 0.02,0.05 0.02,0.08 0,0.07 -0.03,0.13 -0.09,0.15 -0.02,0.01 -0.03,0.02 -0.04,0.02l0 0c0.01,0.03 0.02,0.06 0.02,0.09 0,0.07 -0.04,0.14 -0.11,0.17 -0.02,0.01 -0.05,0.02 -0.08,0.02 -0.01,0 -0.01,0 -0.02,0 0,0 0,0.01 0,0.01 0,0.08 -0.05,0.16 -0.12,0.19 0.01,0.01 0.01,0.03 0.02,0.04 0,0 0,0 0,0 0,0 0,0 0,0l0 0c0.02,-0.01 0.05,-0.02 0.08,-0.02 0,0 0,0 0,0 0.05,0 0.1,0.03 0.13,0.07 0.03,-0.03 0.07,-0.05 0.12,-0.05 0,0 0,0 0,0 0.04,0 0.08,0.02 0.11,0.04 0.02,-0.08 0.1,-0.13 0.18,-0.13 0,0 0,0 0.01,0 0.02,0 0.04,0 0.06,0.01l0 0.01c0.01,-0.11 0.09,-0.2 0.2,-0.21 -0.01,-0.03 -0.02,-0.07 -0.02,-0.1 0,-0.01 0,-0.02 0,-0.03 0.01,-0.09 0.06,-0.16 0.14,-0.2l0 0c-0.04,-0.04 -0.06,-0.09 -0.06,-0.14 0,0 0,0 0,-0.01 0,-0.04 0.01,-0.08 0.04,-0.12 -0.06,-0.03 -0.1,-0.1 -0.1,-0.17 0,-0.02 0.01,-0.04 0.02,-0.06 -0.09,-0.01 -0.16,-0.09 -0.16,-0.18 0,0 0,0 0,0 0,-0.01 0,-0.02 0,-0.03 -0.01,0.01 -0.01,0.01 -0.02,0.01 0,0 0,0 -0.01,0 -0.06,-0.01 -0.11,-0.05 -0.13,-0.11 -0.02,0.01 -0.04,0.02 -0.07,0.02 0,0 0,0 0,0 -0.06,0 -0.1,-0.04 -0.12,-0.1 -0.01,0.01 -0.02,0.01 -0.03,0.01 -0.01,0 -0.01,0 -0.01,0 -0.01,0 -0.02,0 -0.03,0l0 -0.01zm-0.18 0.18c-0.02,0 -0.04,0.01 -0.06,0.01 0,0 0,0 0,0 -0.03,0 -0.05,-0.01 -0.07,-0.01 0.01,0 0.01,0.01 0.01,0.01 0,0.02 -0.01,0.03 -0.02,0.04 -0.01,0.03 -0.03,0.04 -0.06,0.04 0,0.01 0,0.03 0,0.04 0,0.07 -0.05,0.12 -0.12,0.12 -0.01,0 -0.02,0 -0.03,0 0,0 0,0.01 0,0.01 0,0.03 -0.01,0.06 -0.02,0.08 -0.03,0.04 -0.07,0.06 -0.12,0.06 -0.02,0 -0.05,0 -0.07,-0.02 -0.01,0.02 -0.01,0.04 -0.03,0.06 -0.03,0.05 -0.08,0.08 -0.14,0.08 -0.03,0 -0.07,-0.01 -0.09,-0.03 -0.02,-0.01 -0.03,-0.02 -0.04,-0.03l0 0c-0.03,0.06 -0.09,0.09 -0.16,0.09 -0.04,0 -0.07,-0.01 -0.1,-0.03 -0.03,-0.02 -0.06,-0.04 -0.07,-0.08 -0.07,0.05 -0.16,0.05 -0.23,0.01 -0.01,-0.01 -0.03,-0.02 -0.04,-0.04 0,0.01 -0.01,0.02 -0.02,0.02 0.03,0.02 0.05,0.04 0.07,0.07 0.01,0.02 0.01,0.04 0.01,0.06 0,0.03 0,0.06 -0.02,0.08 0.05,0.01 0.08,0.04 0.11,0.09 0.01,0.02 0.01,0.05 0.01,0.07 0,0.02 0,0.03 0,0.04 0.01,0 0.03,0 0.04,0 0.07,0 0.14,0.04 0.17,0.1 0.01,0.02 0.02,0.04 0.02,0.07 0.03,-0.02 0.06,-0.02 0.09,-0.02 0.07,0 0.14,0.03 0.18,0.1 0.02,-0.04 0.06,-0.07 0.11,-0.09 0.08,-0.03 0.17,-0.02 0.23,0.03 0.02,-0.05 0.06,-0.1 0.11,-0.12 0.03,-0.02 0.06,-0.03 0.09,-0.03 0.01,0 0.02,0 0.03,0.01 0.01,-0.07 0.05,-0.14 0.11,-0.17 0.02,-0.01 0.04,-0.02 0.06,-0.02 -0.01,-0.02 -0.01,-0.05 -0.01,-0.07 0,-0.06 0.03,-0.12 0.09,-0.15 0.01,0 0.02,-0.01 0.03,-0.01 -0.01,-0.01 -0.02,-0.02 -0.02,-0.03 -0.01,-0.02 -0.02,-0.04 -0.02,-0.06 0,-0.04 0.02,-0.08 0.05,-0.1 -0.02,-0.01 -0.04,-0.03 -0.05,-0.06 -0.01,-0.01 -0.02,-0.03 -0.02,-0.05 0,-0.04 0.02,-0.07 0.05,-0.1 -0.02,0 -0.03,-0.01 -0.03,-0.03 -0.01,-0.01 -0.01,-0.02 -0.01,-0.03 0,-0.01 0,-0.01 0,-0.01l0 0z"/>
 </g>
</svg>
