<svg width="20" height="20" viewBox="0 0 20 20" fill="none" xmlns="http://www.w3.org/2000/svg">
<g clip-path="url(#clip0_102_6)">
<path d="M10.0004 19.9868C15.4011 19.9868 19.7792 15.5156 19.7792 10C19.7792 4.48443 15.4011 0.0131836 10.0004 0.0131836C4.59977 0.0131836 0.22168 4.48443 0.22168 10C0.22168 15.5156 4.59977 19.9868 10.0004 19.9868Z" fill="white"/>
<path d="M10.0005 0.0507812C4.4783 0.0507812 0.00012207 4.51661 0.00012207 10.0264C0.00012207 14.4345 2.86564 18.1737 6.83866 19.4924C7.33819 19.5846 7.52211 19.2761 7.52211 19.0125C7.52211 18.7746 7.51247 17.9886 7.50845 17.1554C4.72646 17.7586 4.13938 15.9784 4.13938 15.9784C3.68482 14.8255 3.02867 14.5186 3.02867 14.5186C2.12115 13.8993 3.09694 13.9121 3.09694 13.9121C4.10083 13.9826 4.63009 14.9401 4.63009 14.9401C5.52235 16.4655 6.96956 16.0241 7.53978 15.7693C7.62972 15.1243 7.88833 14.6845 8.17504 14.4353C5.95362 14.1829 3.61896 13.3273 3.61896 9.50481C3.61896 8.41599 4.00928 7.52587 4.64936 6.82723C4.54576 6.57646 4.20363 5.56216 4.74654 4.18812C4.74654 4.18812 5.5866 3.91972 7.49721 5.21044C8.2947 4.98931 9.15002 4.87874 10.0005 4.87474C10.8502 4.87874 11.7063 4.98931 12.5054 5.21044C14.4144 3.91972 15.2529 4.18812 15.2529 4.18812C15.7974 5.56216 15.4545 6.57726 15.3509 6.82803C15.9918 7.52667 16.3797 8.41679 16.3797 9.50561C16.3797 13.3369 14.0402 14.1813 11.8132 14.4281C12.1721 14.7374 12.4918 15.3447 12.4918 16.2756C12.4918 17.6104 12.4805 18.6848 12.4805 19.0133C12.4805 19.2785 12.6604 19.5902 13.1672 19.4916C17.1386 18.1713 20.0001 14.4329 20.0001 10.0264C20.0001 4.51661 15.5227 0.0507812 10.0005 0.0507812Z" fill="#5C6BC0"/>
</g>
<defs>
<clipPath id="clip0_102_6">
<rect width="20" height="20" fill="white"/>
</clipPath>
</defs>
</svg>
