<?xml version="1.0" encoding="UTF-8"?>
<!DOCTYPE svg PUBLIC "-//W3C//DTD SVG 1.1//EN" "http://www.w3.org/Graphics/SVG/1.1/DTD/svg11.dtd">
<!-- Creator: CorelDRAW -->
<svg xmlns="http://www.w3.org/2000/svg" xml:space="preserve" width="17px" height="21px" version="1.1" style="shape-rendering:geometricPrecision; text-rendering:geometricPrecision; image-rendering:optimizeQuality; fill-rule:evenodd; clip-rule:evenodd"
viewBox="0 0 1.37 1.63"
 xmlns:xlink="http://www.w3.org/1999/xlink"
 xmlns:xodm="http://www.corel.com/coreldraw/odm/2003">
 <defs>
  <style type="text/css">
   <![CDATA[
    .fil0 {fill:#070707}
    .fil1 {fill:#B4B2B0}
    .fil2 {fill:#E7A41E}
   ]]>
  </style>
 </defs>
 <g id="Слой_x0020_1">
  <metadata id="CorelCorpID_0Corel-Layer"/>
  <g id="_2769571811808">
   <path class="fil0" d="M0.42 1.55c0.03,0.01 0.04,0.02 0.07,0.01 0.02,0 0.04,-0.02 0.05,-0.03 0.03,-0.04 0.03,-0.09 0,-0.12 -0.01,-0.02 -0.03,-0.04 -0.05,-0.05l-0.14 -0.15c-0.02,-0.02 -0.04,-0.04 -0.05,-0.05 -0.02,-0.02 -0.03,-0.04 -0.05,-0.05 -0.02,-0.03 -0.03,-0.03 -0.04,-0.06 -0.01,-0.02 -0.02,-0.06 -0.01,-0.09 0.01,-0.09 0.05,-0.11 0.12,-0.18 0,-0.01 0.01,-0.02 0.02,-0.03l0.22 -0.22c0.01,-0.02 0.04,-0.04 0.05,-0.05 0.02,-0.02 0.03,-0.03 0.05,-0.05 0.02,-0.02 0.09,-0.08 0.1,-0.1 0.03,-0.04 0.07,-0.07 0.1,-0.11 0.03,-0.03 0.09,-0.07 0.09,-0.13 0,-0.04 -0.04,-0.08 -0.09,-0.09l-0.02 0c0,0 -0.01,0 -0.01,0 -0.03,0.01 -0.05,0.03 -0.06,0.05l-0.49 0.48c-0.06,0.06 -0.12,0.12 -0.17,0.18 -0.01,0 -0.01,0.01 -0.02,0.01 -0.01,0.01 -0.01,0.02 -0.02,0.03 -0.08,0.12 -0.1,0.27 -0.02,0.42 0.01,0.02 0.03,0.05 0.05,0.06 0.03,0.05 0.29,0.31 0.32,0.32z"/>
   <path class="fil1" d="M0.51 0.97l0 0.02c0,0.04 0.04,0.08 0.08,0.08l0.7 0c0.05,0 0.09,-0.05 0.08,-0.1 0,-0.05 -0.04,-0.09 -0.09,-0.09l-0.68 0c-0.05,0 -0.09,0.05 -0.09,0.09z"/>
   <path class="fil2" d="M0.54 1.41c0.03,0.03 0.03,0.08 0,0.12 -0.01,0.01 -0.03,0.03 -0.05,0.03 -0.03,0.01 -0.04,0 -0.07,-0.01 0.01,0.02 0.06,0.05 0.08,0.05 0.04,0.02 0.08,0.03 0.13,0.03l0.06 0c0.08,0 0.16,-0.03 0.21,-0.08l0.2 -0.2c0.05,-0.07 0.01,-0.14 -0.06,-0.15 -0.04,-0.01 -0.07,0.01 -0.09,0.03 -0.02,0.03 -0.04,0.05 -0.06,0.07 -0.03,0.03 -0.12,0.11 -0.14,0.12 -0.03,0.02 -0.08,0.03 -0.11,0.02 -0.07,-0.01 -0.07,-0.02 -0.1,-0.03z"/>
   <path class="fil2" d="M0.56 0.53c0.02,0 0.04,-0.02 0.08,-0.02 0.04,0 0.06,0 0.09,0.01 0.03,0.01 0.04,0.03 0.06,0.04l0.16 0.15c0.01,0.02 0.03,0.04 0.06,0.05 0.03,0 0.06,-0.01 0.08,-0.02 0.04,-0.04 0.05,-0.1 0.01,-0.14 -0.03,-0.03 -0.04,-0.03 -0.06,-0.07 -0.01,0 -0.01,0 -0.02,-0.01l-0.12 -0.12c-0.04,-0.03 -0.1,-0.07 -0.14,-0.07 -0.01,0.02 -0.08,0.08 -0.1,0.1 -0.02,0.02 -0.03,0.03 -0.05,0.05 -0.01,0.01 -0.04,0.03 -0.05,0.05z"/>
  </g>
 </g>
</svg>
