<svg width="20" height="20" viewBox="0 0 20 20" fill="none" xmlns="http://www.w3.org/2000/svg">
<g clip-path="url(#clip0_102_9)">
<path d="M10 20C15.5228 20 20 15.5228 20 10C20 4.47716 15.5228 0 10 0C4.47716 0 0 4.47716 0 10C0 15.5228 4.47716 20 10 20Z" fill="#34AADF"/>
<path d="M4.16185 9.91324C4.16185 9.91324 9.16185 7.86124 10.8959 7.13868C11.5607 6.84968 13.815 5.9248 13.815 5.9248C13.815 5.9248 14.8555 5.5202 14.7688 6.50284C14.7398 6.90748 14.5086 8.32364 14.2774 9.85544C13.9306 12.0231 13.5549 14.393 13.5549 14.393C13.5549 14.393 13.4971 15.0578 13.0058 15.1734C12.5144 15.289 11.7052 14.7688 11.5607 14.6531C11.445 14.5664 9.39305 13.2658 8.64161 12.63C8.43929 12.4566 8.20809 12.1098 8.67049 11.7052C9.71097 10.7514 10.9537 9.56644 11.7052 8.815C12.052 8.46816 12.3988 7.65892 10.9537 8.64156C8.90173 10.0578 6.87861 11.3872 6.87861 11.3872C6.87861 11.3872 6.41617 11.6762 5.54913 11.4161C4.68205 11.156 3.67049 10.8092 3.67049 10.8092C3.67049 10.8092 2.97689 10.3757 4.16185 9.91324Z" fill="white"/>
</g>
<defs>
<clipPath id="clip0_102_9">
<rect width="20" height="20" fill="white"/>
</clipPath>
</defs>
</svg>
